Coordinates
version=1
nRows=8
nColumns=63
inDegrees=yes

Units are S.I. units (second, meters, Newtons, ...)
If the header above contains a line with 'inDegrees', this indicates whether rotational values are in degrees (yes) or radians (no).

endheader
time	pelvis_tilt	pelvis_list	pelvis_rotation	pelvis_tx	pelvis_ty	pelvis_tz	hip_flexion_r	hip_adduction_r	hip_rotation_r	knee_angle_r	knee_angle_r_beta	ankle_angle_r	subtalar_angle_r	mtp_angle_r	hip_flexion_l	hip_adduction_l	hip_rotation_l	knee_angle_l	knee_angle_l_beta	ankle_angle_l	subtalar_angle_l	mtp_angle_l	L5_S1_Flex_Ext	L5_S1_Lat_Bending	L5_S1_axial_rotation	L4_L5_Flex_Ext	L4_L5_Lat_Bending	L4_L5_axial_rotation	L3_L4_Flex_Ext	L3_L4_Lat_Bending	L3_L4_axial_rotation	L2_L3_Flex_Ext	L2_L3_Lat_Bending	L2_L3_axial_rotation	L1_L2_Flex_Ext	L1_L2_Lat_Bending	L1_L2_axial_rotation	L1_T12_Flex_Ext	L1_T12_Lat_Bending	L1_T12_axial_rotation	Abs_r3	Abs_r2	Abs_r1	Abs_t1	Abs_t2	neck_flexion	neck_bending	neck_rotation	arm_flex_r	arm_add_r	arm_rot_r	elbow_flex_r	pro_sup_r	wrist_flex_r	wrist_dev_r	arm_flex_l	arm_add_l	arm_rot_l	elbow_flex_l	pro_sup_l	wrist_flex_l	wrist_dev_l
      0.03333333	      6.37715685	     -1.17619729	   -185.98298448	      2.65868010	      0.88282190	      0.88212213	     18.67909335	     -4.64603579	    -10.01571401	     29.07258635	      0.50741235	   -336.70926863	      1.78130856	      0.00000000	      7.42124276	     -1.61516996	    -13.01404911	     11.96624621	      0.20885040	     13.76025238	    -18.52368543	      0.00000000	      0.00026918	     -0.29556654	     -0.60468511	      0.00049990	     -0.39310350	     -0.64247793	      0.00044224	     -0.71864049	     -0.64247793	      0.00030765	     -0.71864049	     -0.52909947	      0.00024996	     -0.60271929	     -0.49130665	      0.00015381	     -0.45783258	     -0.45351383	      0.00192275	     -3.34350785	     -3.36307718	      0.00000000	      0.00000000	     -0.00000000	      0.00000000	      0.00000000	      3.41545720	    -15.83431773	     64.83029260	     25.24157250	     52.62292926	      0.00000000	      5.21284431	    -18.90213854	     -4.59066457	     -0.80867603	     29.61804202	     44.92461582	      0.00000000	      5.21284431
      0.06666667	      6.59547483	     -2.17595454	   -185.11383109	      2.65996548	      0.88297842	      0.88227184	     19.04366868	     -6.05223353	    -11.20470806	     29.45315806	      0.51405458	   -335.89454456	      2.74887196	      0.00000000	     10.40204574	     -0.69133709	    -12.12040071	     16.29651254	      0.28442780	     15.17979737	    -18.57222001	      0.00000000	     -0.00129553	     -0.31357685	     -0.58797687	     -0.00240592	     -0.41705721	     -0.62472542	     -0.00212842	     -0.76243076	     -0.62472542	     -0.00148066	     -0.76243076	     -0.51447976	     -0.00120303	     -0.63944591	     -0.47773120	     -0.00074026	     -0.48573054	     -0.44098265	     -0.00925382	     -3.54724405	     -3.27015094	      0.00000000	      0.00000000	     -0.00000000	      0.00000000	      0.00000000	      2.81113492	    -15.20121268	     61.97250923	     24.53417213	     52.43018478	      0.00000000	      5.18844527	    -18.00378705	     -5.40006051	      4.72249249	     28.43999665	     45.94101428	      0.00000000	      5.18844527
      0.10000000	      6.74789915	     -3.12759964	   -184.88130266	      2.66085456	      0.88287820	      0.88153336	     19.46929077	     -7.24618887	    -11.85001294	     29.94790176	      0.52268949	   -335.10280443	      3.78089617	      0.00000000	     12.57170462	      0.14941080	    -12.27222188	     19.48099616	      0.34000752	     15.95169536	    -18.48046781	      0.00000000	     -0.00306544	     -0.33686381	     -0.44219338	     -0.00569282	     -0.44802887	     -0.46983046	     -0.00503621	     -0.81905066	     -0.46983046	     -0.00350349	     -0.81905066	     -0.38691921	     -0.00284656	     -0.68693268	     -0.35928212	     -0.00175159	     -0.52180204	     -0.33164503	     -0.02189611	     -3.81067078	     -2.45934691	      0.00000000	      0.00000000	     -0.00000000	      0.00000000	      0.00000000	      1.28365477	    -14.28682549	     54.30826739	     24.14722308	     52.59883155	      0.00000000	      5.14139854	    -17.02275710	     -6.41897904	     10.98584959	     27.50199929	     46.93678808	      0.00000000	      5.14139854
      0.13333333	      6.79518014	     -3.57598524	   -184.33878427	      2.66106862	      0.88280346	      0.88104270	     19.44912465	     -7.87340110	    -12.48940718	     30.03747861	      0.52425290	   -334.66889224	      3.96489995	      0.00000000	     13.93231649	      0.55815815	    -12.11393445	     21.62786821	      0.37747751	     16.26401488	    -18.30479744	      0.00000000	     -0.00693909	     -0.32594634	     -0.38768867	     -0.01288658	     -0.43350863	     -0.41191921	     -0.01140023	     -0.79250592	     -0.41191921	     -0.00793068	     -0.79250592	     -0.33922759	     -0.00644364	     -0.66466977	     -0.31499705	     -0.00396500	     -0.50489087	     -0.29076650	     -0.04956522	     -3.68717013	     -2.15620808	      0.00000000	      0.00000000	     -0.00000000	      0.00000000	      0.00000000	      0.41361092	    -13.70013209	     50.10201501	     23.83089459	     53.12770513	      0.00000000	      5.11883188	    -16.18331392	     -7.01061599	     15.43941686	     26.66495776	     47.70981228	      0.00000000	      5.11883188
      0.16666667	      6.77271848	     -3.96471456	   -184.25852232	      2.66069052	      0.88261421	      0.87996672	     19.37835145	     -8.20775735	    -12.33358478	     30.04780673	      0.52443316	   -334.38974521	      3.88523278	      0.00000000	     14.38204005	      0.86903462	    -12.46648809	     22.44152738	      0.39167854	     16.26698475	    -18.28042113	      0.00000000	     -0.00493052	     -0.33926051	     -0.30367964	     -0.00915646	     -0.45121648	     -0.32265962	     -0.00810035	     -0.82487800	     -0.32265962	     -0.00563509	     -0.82487800	     -0.26571969	     -0.00457848	     -0.69182003	     -0.24673971	     -0.00281730	     -0.52551453	     -0.22775973	     -0.03521819	     -3.83778273	     -1.68897507	      0.00000000	      0.00000000	     -0.00000000	      0.00000000	      0.00000000	      0.19454751	    -13.32231538	     49.73888072	     23.33818735	     53.19186547	      0.00000000	      5.11708651	    -15.99409007	     -7.01761628	     15.68922424	     26.40028100	     47.74951950	      0.00000000	      5.11708651
      0.20000000	      6.75055962	     -4.14704812	   -184.43284147	      2.66043214	      0.88225874	      0.87882278	     19.45158386	     -8.23395532	    -11.73420942	     30.28030611	      0.52849104	   -334.26771484	      3.65339211	      0.00000000	     14.49485430	      0.87259247	    -13.16926386	     22.77352186	      0.39747294	     16.30822422	    -18.10402405	      0.00000000	     -0.00480301	     -0.34953591	     -0.22606784	     -0.00891966	     -0.46488276	     -0.24019708	     -0.00789086	     -0.84986161	     -0.24019708	     -0.00548936	     -0.84986161	     -0.19780936	     -0.00446007	     -0.71277362	     -0.18368012	     -0.00274444	     -0.54143112	     -0.16955088	     -0.03430739	     -3.95402009	     -1.25732150	      0.00000000	      0.00000000	     -0.00000000	      0.00000000	      0.00000000	      0.05392953	    -12.87227498	     48.64361566	     22.69118990	     53.29926637	      0.00000000	      5.11300047	    -15.78356812	     -7.10011758	     16.42375777	     26.07993575	     47.88519445	      0.00000000	      5.11300047
      0.23333333	      6.74358690	     -4.07230349	   -184.44196766	      2.66006100	      0.88192053	      0.87824277	     19.32213097	     -7.99069178	    -11.20099444	     30.22186951	      0.52747113	   -334.18625359	      3.33825042	      0.00000000	     14.34796503	      0.70494818	    -13.60857699	     22.61519686	      0.39470965	     16.34950973	    -17.97212468	      0.00000000	     -0.00360539	     -0.34349056	     -0.21391988	     -0.00669557	     -0.45684245	     -0.22728988	     -0.00592330	     -0.83516296	     -0.22728988	     -0.00412060	     -0.83516296	     -0.18717990	     -0.00334797	     -0.70044596	     -0.17380990	     -0.00206012	     -0.53206688	     -0.16043991	     -0.02575294	     -3.88563396	     -1.18975821	      0.00000000	      0.00000000	     -0.00000000	      0.00000000	      0.00000000	     -0.04916233	    -12.88065646	     48.15042653	     22.86882011	     53.23662296	      0.00000000	      5.10831252	    -15.72918325	     -6.99701188	     16.49005800	     25.89417960	     47.86063795	      0.00000000	      5.10831252
      0.26666667	      6.70795313	     -4.42738532	   -185.00228329	      2.66006360	      0.88151580	      0.87706227	     19.65039624	     -7.91568177	     -9.32185120	     30.67985915	      0.53546456	   -334.11788803	      2.30185753	      0.00000000	     14.01644921	      0.90403561	    -14.57645412	     22.07011175	      0.38519612	     16.26526712	    -18.00674976	      0.00000000	     -0.00326329	     -0.39492870	     -0.11340957	     -0.00606026	     -0.52525517	     -0.12049766	     -0.00536127	     -0.96022963	     -0.12049766	     -0.00372962	     -0.96022963	     -0.09923337	     -0.00303030	     -0.80533860	     -0.09214527	     -0.00186465	     -0.61174455	     -0.08505717	     -0.02330939	     -4.46751241	     -0.63074998	      0.00000000	      0.00000000	     -0.00000000	      0.00000000	      0.00000000	     -0.40064887	    -12.40720823	     45.55786901	     22.84441690	     53.57992434	      0.00000000	      5.09280810	    -15.75527812	     -7.02475922	     15.97943652	     25.92843067	     47.66359969	      0.00000000	      5.09280810
